# xmcd CD database file
#
# Track frame offsets:
#	150
#	20447
#	41950
#	61327
#	83810
#	105455
#	129125
#	150005
#	170635
#	184717
#	206910
#	223807
#	242440
#
# Disc length: 3502 seconds
#
# Revision: 0
# Processed by: cddbd v1.5.1PL0 Copyright (c) Steve Scherf et al.
# Submitted via: CDex 1.51
#
DISCID=a70dac0d
DTITLE=犬神サーカス団 - スケ番ロック
DYEAR=2005
DGENRE=Rock
TTITLE0=あいつ
TTITLE1=スケ番ロック
TTITLE2=堕ちた英雄
TTITLE3=口裂け女伝説
TTITLE4=太陽を待ってる
TTITLE5=サーカスの人魚
TTITLE6=14
TTITLE7=平成デモクラシー
TTITLE8=都合のいい女-Album Mix ver-
TTITLE9=最新型アンドロイド
TTITLE10=殺したい女
TTITLE11=欲望の牙〜吸血少女・魔子〜
TTITLE12=箱舟
EXTD=YEAR: 2005
EXTT0=
EXTT1=
EXTT2=
EXTT3=
EXTT4=
EXTT5=
EXTT6=
EXTT7=
EXTT8=
EXTT9=
EXTT10=
EXTT11=
EXTT12=
PLAYORDER=
